<svg width="288" height="53" fill="none" xmlns="http://www.w3.org/2000/svg"><g clip-path="url(#clip0)"><path d="M13 49.2a8.49 8.49 0 0116.4.1s.1.5.1.7c.1.9.7 1.6 1.6 1.6h9.6c.9 0 1.6-.7 1.6-1.6v-.3c-1-10.9-10.1-19.4-21.2-19.4C10.1 30.2 1 38.8 0 49.6v.3c0 .9.7 1.6 1.6 1.6h9.8c.9 0 1.3-.6 1.5-1.7l.1-.6z" fill="#19B4B8"/><path d="M55.7.1c-1.2-.5-2.2.5-2.3 1.6L52 10.8c-.2 1.1.1 2.9 1.3 3.9l.6.5.1.1.1.1C64.1 23.9 70 35.9 70.7 49v.7c0 1.1.9 1.9 1.9 1.9h9c1 0 1.8-.8 1.9-1.8-.5-18-8.3-38.2-27.8-49.7z" fill="#04529D"/><path d="M27.4 17.3C43.5 19.5 55.9 33.1 57 49.4l.1.7c.1.9.8 1.5 1.7 1.5h9.5c.8 0 1.5-.7 1.5-1.5-.7-23.4-18.4-42.9-41.7-45.5-1.4-.2-2.1.8-2.2 1.6l-.6 7.9-.1 1.4c-.1.9.8 1.5 1.5 1.6l.7.2z" fill="#0A6BB4"/><path d="M21.8 17.2c-5 0-10 1.1-14.5 3.2l-.7.4c-.9.5-1.3 1.7-.7 2.7l2.3 4.1 1.9 3.1c.5.9 1.5 1.2 2.5.7l.8-.3c2.6-1 5.4-1.5 8.2-1.5 11.1 0 20.5 8.9 21.6 19.7l.1.7c.1.9.8 1.5 1.7 1.5h9.5c.9 0 1.6-.7 1.6-1.6a34.38 34.38 0 00-34.3-32.7z" fill="#0697AD"/><path d="M106.8 51.2c-.4-.4-.5-.8-.5-1.2V16.8c0-.5.2-1 .5-1.3.3-.4.8-.5 1.3-.5h8.6c.5 0 1 .2 1.3.5.4.4.5.8.5 1.3v2.7c1.3-1.5 2.9-2.6 4.6-3.4 1.8-.8 3.7-1.2 5.9-1.2h3.2c.5 0 .9.2 1.3.5.3.3.5.8.5 1.3v7.7c0 .5-.2.9-.5 1.2-.3.4-.8.5-1.3.5h-7.1c-1.9 0-3.3.5-4.3 1.6-1 1-1.5 2.5-1.5 4.4v17.8c0 .5-.2.9-.5 1.3-.4.3-.8.5-1.3.5H108c-.4 0-.9-.2-1.2-.5zm33.9-.3c-2-1-3.7-2.3-4.8-4a9.47 9.47 0 01-1.7-5.6c0-3.2 1.3-5.8 4-7.8s6.3-3.4 11-4.1l8.8-1.3v-.8c0-1.7-.4-3-1.1-3.8-.7-.8-1.9-1.2-3.6-1.2-.9 0-1.7.2-2.4.5-.6.3-1.4.8-2.2 1.5-.6.5-1.2.9-1.6 1.1-.2.3-.4.5-.7.5h-8.2c-.5 0-.9-.2-1.2-.5-.3-.3-.4-.7-.4-1.1 0-1.3.7-2.7 1.9-4.3 1.2-1.6 3.1-2.9 5.6-4.1 2.5-1.1 5.6-1.7 9.3-1.7 5.8 0 10.2 1.3 13 3.9 2.8 2.6 4.2 6 4.2 10.4v21.4c0 .5-.2.9-.5 1.2-.3.4-.8.5-1.3.5h-8.7c-.5 0-.9-.2-1.2-.5-.4-.4-.5-.8-.5-1.2v-2.5c-1 1.5-2.5 2.7-4.3 3.6-1.8.9-4 1.4-6.6 1.4-2.5 0-4.8-.5-6.8-1.5zm15.4-8.9c1.3-1.4 1.9-3.3 1.9-5.9v-.8l-5.9 1c-4 .8-5.9 2.2-5.9 4.2 0 1.1.5 2 1.4 2.6.9.6 2.1 1 3.4 1 2.1 0 3.8-.7 5.1-2.1zm23.5 6.1c-2.6-2.9-4-7-4.2-12.3l-.1-2.5.1-2.5c.2-5.1 1.6-9.2 4.2-12.1 2.6-2.9 6.2-4.4 10.7-4.4 4.2 0 7.7 1.4 10.2 4.1v-15c0-.5.2-.9.5-1.3.4-.3.8-.5 1.2-.5h9.1c.5 0 1 .2 1.3.5.4.3.5.8.5 1.3V50c0 .5-.2.9-.5 1.3-.4.3-.8.5-1.3.5H203c-.5 0-.9-.2-1.2-.5-.4-.4-.5-.8-.5-1.2v-2.2c-2.5 3.1-6.2 4.7-10.9 4.7-4.6-.2-8.2-1.6-10.8-4.5zm19.3-7.5c1-1.3 1.5-2.9 1.6-4.9.1-1.3.1-2.2.1-2.7s0-1.4-.1-2.6a7.2 7.2 0 00-1.7-4.6c-1-1.2-2.5-1.8-4.5-1.8-2.1 0-3.6.6-4.6 1.9-1 1.3-1.4 3-1.6 5.2l-.1 2.2.1 2.2c.1 2.2.7 3.9 1.6 5.2.9 1.3 2.4 1.9 4.6 1.9 2.1 0 3.7-.7 4.6-2zm24.9 10.3c-2-1-3.7-2.3-4.8-4a9.47 9.47 0 01-1.7-5.6c0-3.2 1.3-5.8 4-7.8s6.3-3.4 11-4.1l8.8-1.3v-.8c0-1.7-.4-3-1.1-3.8-.7-.8-1.9-1.2-3.6-1.2-.9 0-1.7.2-2.4.5-.6.3-1.4.8-2.2 1.5-.6.5-1.2.9-1.6 1.1-.2.3-.4.5-.7.5h-8.2c-.5 0-.9-.2-1.2-.5-.3-.3-.4-.7-.4-1.1 0-1.3.7-2.7 1.9-4.3 1.2-1.6 3.1-2.9 5.6-4.1 2.5-1.1 5.6-1.7 9.3-1.7 5.8 0 10.2 1.3 13 3.9 2.8 2.6 4.2 6 4.2 10.4v21.4c0 .5-.2.9-.5 1.2-.3.4-.8.5-1.3.5h-8.7c-.5 0-.9-.2-1.2-.5-.4-.4-.5-.8-.5-1.2v-2.5c-1 1.5-2.5 2.7-4.3 3.6-1.8.9-4 1.4-6.6 1.4-2.4 0-4.7-.5-6.8-1.5zm15.4-8.9c1.3-1.4 1.9-3.3 1.9-5.9v-.8l-5.9 1c-4 .8-5.9 2.2-5.9 4.2 0 1.1.5 2 1.4 2.6.9.7 2.1 1 3.4 1 2.2 0 3.8-.7 5.1-2.1zm21 9.2c-.4-.4-.5-.8-.5-1.2V16.8c0-.5.2-1 .5-1.3.3-.4.8-.5 1.3-.5h8.6c.5 0 1 .2 1.3.5.4.4.5.8.5 1.3v2.7c1.3-1.5 2.9-2.6 4.6-3.4 1.8-.8 3.7-1.2 5.9-1.2h3.2c.5 0 .9.2 1.3.5.3.3.5.8.5 1.3v7.7c0 .5-.2.9-.5 1.2-.3.4-.8.5-1.3.5h-7.1c-1.9 0-3.3.5-4.3 1.6-1 1-1.5 2.5-1.5 4.4v17.8c0 .5-.2.9-.5 1.3-.4.3-.8.5-1.3.5h-9.3c-.6 0-1-.2-1.4-.5z" fill="#202631"/></g><defs><clipPath id="clip0"><path fill="#fff" d="M0 0h287.4v52.4H0z"/></clipPath></defs></svg>